<svg id="visual" viewBox="0 0 1920 1080" width="1920" height="1080" xmlns="http://www.w3.org/2000/svg" xmlns:xlink="http://www.w3.org/1999/xlink" version="1.1"><g stroke-width="2" stroke-linejoin="bevel"><path d="M964 580L1006 515L855 536Z" fill="#02b917" stroke="#000000"></path><path d="M1006 515L976 447L855 536Z" fill="#005c20" stroke="#000000"></path><path d="M976 447L881 430L855 536Z" fill="#003b19" stroke="#000000"></path><path d="M937 270L855 417L881 430Z" fill="#003b19" stroke="#000000"></path><path d="M881 430L855 417L855 536Z" fill="#022b14" stroke="#000000"></path><path d="M855 417L817 572L855 536Z" fill="#009321" stroke="#000000"></path><path d="M855 536L928 662L964 580Z" fill="#13cc07" stroke="#000000"></path><path d="M1006 515L1051 429L976 447Z" fill="#13cc07" stroke="#000000"></path><path d="M976 447L937 270L881 430Z" fill="#02b917" stroke="#000000"></path><path d="M817 572L928 662L855 536Z" fill="#13cc07" stroke="#000000"></path><path d="M1154 597L1134 512L1006 515Z" fill="#006e22" stroke="#000000"></path><path d="M1154 597L1006 515L964 580Z" fill="#13cc07" stroke="#000000"></path><path d="M1006 515L1134 512L1051 429Z" fill="#008022" stroke="#000000"></path><path d="M1081 305L937 270L1051 429Z" fill="#003b19" stroke="#000000"></path><path d="M1051 429L937 270L976 447Z" fill="#009321" stroke="#000000"></path><path d="M928 662L1154 597L964 580Z" fill="#008022" stroke="#000000"></path><path d="M1134 512L1081 305L1051 429Z" fill="#006e22" stroke="#000000"></path><path d="M807 801L951 792L928 662Z" fill="#02b917" stroke="#000000"></path><path d="M928 662L1173 696L1154 597Z" fill="#006e22" stroke="#000000"></path><path d="M1134 512L1101 288L1081 305Z" fill="#022b14" stroke="#000000"></path><path d="M1081 305L1101 288L937 270Z" fill="#005c20" stroke="#000000"></path><path d="M1321 430L1101 288L1134 512Z" fill="#001c0b" stroke="#000000"></path><path d="M669 652L754 745L817 572Z" fill="#004b1d" stroke="#000000"></path><path d="M817 572L754 745L928 662Z" fill="#005c20" stroke="#000000"></path><path d="M806 223L700 325L855 417Z" fill="#022b14" stroke="#000000"></path><path d="M855 417L589 429L817 572Z" fill="#022b14" stroke="#000000"></path><path d="M592 545L669 652L817 572Z" fill="#00a51e" stroke="#000000"></path><path d="M1121 791L1173 696L928 662Z" fill="#022b14" stroke="#000000"></path><path d="M1368 557L1321 430L1134 512Z" fill="#005c20" stroke="#000000"></path><path d="M913 135L820 219L937 270Z" fill="#008022" stroke="#000000"></path><path d="M937 270L820 219L855 417Z" fill="#022b14" stroke="#000000"></path><path d="M820 219L806 223L855 417Z" fill="#022b14" stroke="#000000"></path><path d="M754 745L807 801L928 662Z" fill="#005c20" stroke="#000000"></path><path d="M584 529L592 545L589 429Z" fill="#022b14" stroke="#000000"></path><path d="M685 778L810 828L807 801Z" fill="#005c20" stroke="#000000"></path><path d="M807 801L810 828L951 792Z" fill="#008022" stroke="#000000"></path><path d="M685 778L807 801L754 745Z" fill="#005c20" stroke="#000000"></path><path d="M971 911L1121 791L951 792Z" fill="#022b14" stroke="#000000"></path><path d="M951 792L1121 791L928 662Z" fill="#006e22" stroke="#000000"></path><path d="M589 429L592 545L817 572Z" fill="#13cc07" stroke="#000000"></path><path d="M608 268L589 429L700 325Z" fill="#02b917" stroke="#000000"></path><path d="M700 325L589 429L855 417Z" fill="#008022" stroke="#000000"></path><path d="M636 779L685 778L669 652Z" fill="#001c0b" stroke="#000000"></path><path d="M669 652L685 778L754 745Z" fill="#006e22" stroke="#000000"></path><path d="M636 779L669 652L593 780Z" fill="#022b14" stroke="#000000"></path><path d="M1101 288L913 135L937 270Z" fill="#008022" stroke="#000000"></path><path d="M820 219L865 62L806 223Z" fill="#008022" stroke="#000000"></path><path d="M546 665L669 652L592 545Z" fill="#001c0b" stroke="#000000"></path><path d="M685 778L717 966L810 828Z" fill="#02b917" stroke="#000000"></path><path d="M1368 557L1154 597L1351 668Z" fill="#02b917" stroke="#000000"></path><path d="M1368 557L1134 512L1154 597Z" fill="#003b19" stroke="#000000"></path><path d="M1101 288L1080 34L913 135Z" fill="#004b1d" stroke="#000000"></path><path d="M590 145L608 268L806 223Z" fill="#02b917" stroke="#000000"></path><path d="M806 223L608 268L700 325Z" fill="#009321" stroke="#000000"></path><path d="M717 966L971 911L810 828Z" fill="#13cc07" stroke="#000000"></path><path d="M810 828L971 911L951 792Z" fill="#003b19" stroke="#000000"></path><path d="M1291 271L1215 220L1101 288Z" fill="#00a51e" stroke="#000000"></path><path d="M406 556L546 665L584 529Z" fill="#005c20" stroke="#000000"></path><path d="M584 529L546 665L592 545Z" fill="#006e22" stroke="#000000"></path><path d="M461 449L584 529L589 429Z" fill="#02b917" stroke="#000000"></path><path d="M546 665L593 780L669 652Z" fill="#001c0b" stroke="#000000"></path><path d="M619 958L717 966L685 778Z" fill="#02b917" stroke="#000000"></path><path d="M1321 430L1291 271L1101 288Z" fill="#009321" stroke="#000000"></path><path d="M1351 668L1154 597L1173 696Z" fill="#008022" stroke="#000000"></path><path d="M1440 323L1348 208L1291 271Z" fill="#008022" stroke="#000000"></path><path d="M1103 962L1194 875L1121 791Z" fill="#004b1d" stroke="#000000"></path><path d="M1121 791L1194 875L1173 696Z" fill="#00a51e" stroke="#000000"></path><path d="M1318 763L1351 668L1173 696Z" fill="#02b917" stroke="#000000"></path><path d="M915 0L865 62L913 135Z" fill="#003b19" stroke="#000000"></path><path d="M913 135L865 62L820 219Z" fill="#009321" stroke="#000000"></path><path d="M1348 208L1209 154L1215 220Z" fill="#006e22" stroke="#000000"></path><path d="M1215 220L1209 154L1101 288Z" fill="#13cc07" stroke="#000000"></path><path d="M1103 962L1202 877L1194 875Z" fill="#009321" stroke="#000000"></path><path d="M1194 875L1318 763L1173 696Z" fill="#00a51e" stroke="#000000"></path><path d="M1202 877L1318 763L1194 875Z" fill="#001c0b" stroke="#000000"></path><path d="M466 382L461 449L589 429Z" fill="#001c0b" stroke="#000000"></path><path d="M1395 746L1383 646L1351 668Z" fill="#005c20" stroke="#000000"></path><path d="M1351 668L1383 646L1368 557Z" fill="#008022" stroke="#000000"></path><path d="M608 268L466 382L589 429Z" fill="#008022" stroke="#000000"></path><path d="M971 911L1103 962L1121 791Z" fill="#003b19" stroke="#000000"></path><path d="M1032 1058L1103 962L971 911Z" fill="#009321" stroke="#000000"></path><path d="M466 382L439 420L461 449Z" fill="#004b1d" stroke="#000000"></path><path d="M461 449L406 556L584 529Z" fill="#006e22" stroke="#000000"></path><path d="M546 665L467 796L593 780Z" fill="#001c0b" stroke="#000000"></path><path d="M865 62L590 145L806 223Z" fill="#009321" stroke="#000000"></path><path d="M608 268L519 207L466 382Z" fill="#009321" stroke="#000000"></path><path d="M466 382L338 175L439 420Z" fill="#003b19" stroke="#000000"></path><path d="M1209 154L1080 34L1101 288Z" fill="#02b917" stroke="#000000"></path><path d="M619 958L685 778L636 779Z" fill="#13cc07" stroke="#000000"></path><path d="M590 145L519 207L608 268Z" fill="#006e22" stroke="#000000"></path><path d="M968 0L915 0L913 135Z" fill="#00a51e" stroke="#000000"></path><path d="M865 62L599 0L590 145Z" fill="#003b19" stroke="#000000"></path><path d="M1080 34L968 0L913 135Z" fill="#13cc07" stroke="#000000"></path><path d="M1209 154L1216 86L1080 34Z" fill="#006e22" stroke="#000000"></path><path d="M1348 208L1216 86L1209 154Z" fill="#02b917" stroke="#000000"></path><path d="M915 0L854 0L865 62Z" fill="#005c20" stroke="#000000"></path><path d="M1440 323L1291 271L1321 430Z" fill="#02b917" stroke="#000000"></path><path d="M1291 271L1348 208L1215 220Z" fill="#004b1d" stroke="#000000"></path><path d="M1440 429L1321 430L1368 557Z" fill="#009321" stroke="#000000"></path><path d="M1622 533L1440 429L1368 557Z" fill="#009321" stroke="#000000"></path><path d="M1318 763L1395 746L1351 668Z" fill="#001c0b" stroke="#000000"></path><path d="M1383 646L1448 680L1368 557Z" fill="#006e22" stroke="#000000"></path><path d="M1327 890L1395 746L1318 763Z" fill="#13cc07" stroke="#000000"></path><path d="M1327 890L1318 763L1202 877Z" fill="#005c20" stroke="#000000"></path><path d="M439 420L406 556L461 449Z" fill="#00a51e" stroke="#000000"></path><path d="M593 780L619 958L636 779Z" fill="#00a51e" stroke="#000000"></path><path d="M451 171L533 160L536 0Z" fill="#009321" stroke="#000000"></path><path d="M590 145L533 160L519 207Z" fill="#001c0b" stroke="#000000"></path><path d="M519 207L451 171L466 382Z" fill="#005c20" stroke="#000000"></path><path d="M392 756L467 796L546 665Z" fill="#008022" stroke="#000000"></path><path d="M445 871L619 958L593 780Z" fill="#008022" stroke="#000000"></path><path d="M1440 429L1440 323L1321 430Z" fill="#13cc07" stroke="#000000"></path><path d="M1395 746L1448 680L1383 646Z" fill="#00a51e" stroke="#000000"></path><path d="M1440 429L1530 349L1440 323Z" fill="#008022" stroke="#000000"></path><path d="M1209 1080L1327 890L1202 877Z" fill="#004b1d" stroke="#000000"></path><path d="M1395 746L1519 833L1448 680Z" fill="#005c20" stroke="#000000"></path><path d="M956 1080L971 911L717 966Z" fill="#008022" stroke="#000000"></path><path d="M956 1080L1032 1058L971 911Z" fill="#004b1d" stroke="#000000"></path><path d="M1322 1080L1361 906L1327 890Z" fill="#13cc07" stroke="#000000"></path><path d="M670 1080L956 1080L717 966Z" fill="#009321" stroke="#000000"></path><path d="M956 1080L991 1080L1032 1058Z" fill="#005c20" stroke="#000000"></path><path d="M1209 1080L1103 962L1032 1058Z" fill="#003b19" stroke="#000000"></path><path d="M1209 1080L1202 877L1103 962Z" fill="#004b1d" stroke="#000000"></path><path d="M1327 890L1361 906L1395 746Z" fill="#003b19" stroke="#000000"></path><path d="M536 0L533 160L590 145Z" fill="#02b917" stroke="#000000"></path><path d="M533 160L451 171L519 207Z" fill="#009321" stroke="#000000"></path><path d="M232 434L299 589L406 556Z" fill="#02b917" stroke="#000000"></path><path d="M467 796L445 871L593 780Z" fill="#001c0b" stroke="#000000"></path><path d="M406 556L392 756L546 665Z" fill="#008022" stroke="#000000"></path><path d="M1283 0L1231 0L1216 86Z" fill="#005c20" stroke="#000000"></path><path d="M1216 86L1231 0L1080 34Z" fill="#004b1d" stroke="#000000"></path><path d="M1080 34L1231 0L968 0Z" fill="#001c0b" stroke="#000000"></path><path d="M1283 0L1216 86L1348 208Z" fill="#005c20" stroke="#000000"></path><path d="M392 756L445 871L467 796Z" fill="#005c20" stroke="#000000"></path><path d="M854 0L599 0L865 62Z" fill="#008022" stroke="#000000"></path><path d="M1546 236L1438 164L1440 323Z" fill="#001c0b" stroke="#000000"></path><path d="M1440 323L1438 164L1348 208Z" fill="#022b14" stroke="#000000"></path><path d="M1438 164L1283 0L1348 208Z" fill="#13cc07" stroke="#000000"></path><path d="M1622 533L1530 349L1440 429Z" fill="#008022" stroke="#000000"></path><path d="M622 1080L670 1080L619 958Z" fill="#006e22" stroke="#000000"></path><path d="M619 958L670 1080L717 966Z" fill="#004b1d" stroke="#000000"></path><path d="M232 434L406 556L439 420Z" fill="#003b19" stroke="#000000"></path><path d="M406 556L299 589L392 756Z" fill="#009321" stroke="#000000"></path><path d="M392 756L295 814L445 871Z" fill="#003b19" stroke="#000000"></path><path d="M991 1080L1209 1080L1032 1058Z" fill="#008022" stroke="#000000"></path><path d="M599 0L536 0L590 145Z" fill="#02b917" stroke="#000000"></path><path d="M610 1080L622 1080L619 958Z" fill="#005c20" stroke="#000000"></path><path d="M478 1080L610 1080L619 958Z" fill="#001c0b" stroke="#000000"></path><path d="M1361 906L1437 925L1395 746Z" fill="#001c0b" stroke="#000000"></path><path d="M1675 403L1594 319L1530 349Z" fill="#13cc07" stroke="#000000"></path><path d="M1325 1080L1437 925L1361 906Z" fill="#13cc07" stroke="#000000"></path><path d="M299 589L299 738L392 756Z" fill="#009321" stroke="#000000"></path><path d="M445 871L439 1043L619 958Z" fill="#022b14" stroke="#000000"></path><path d="M1437 925L1519 833L1395 746Z" fill="#004b1d" stroke="#000000"></path><path d="M1594 319L1546 236L1530 349Z" fill="#13cc07" stroke="#000000"></path><path d="M1530 349L1546 236L1440 323Z" fill="#003b19" stroke="#000000"></path><path d="M1438 164L1491 100L1283 0Z" fill="#022b14" stroke="#000000"></path><path d="M339 38L338 175L451 171Z" fill="#003b19" stroke="#000000"></path><path d="M451 171L338 175L466 382Z" fill="#022b14" stroke="#000000"></path><path d="M1437 925L1495 908L1519 833Z" fill="#02b917" stroke="#000000"></path><path d="M1601 1080L1495 908L1437 925Z" fill="#13cc07" stroke="#000000"></path><path d="M1209 1080L1322 1080L1327 890Z" fill="#001c0b" stroke="#000000"></path><path d="M1622 533L1368 557L1448 680Z" fill="#001c0b" stroke="#000000"></path><path d="M1322 1080L1325 1080L1361 906Z" fill="#02b917" stroke="#000000"></path><path d="M1675 403L1622 533L1717 549Z" fill="#001c0b" stroke="#000000"></path><path d="M1718 710L1622 533L1448 680Z" fill="#13cc07" stroke="#000000"></path><path d="M1489 0L1491 100L1521 0Z" fill="#00a51e" stroke="#000000"></path><path d="M1546 236L1491 100L1438 164Z" fill="#02b917" stroke="#000000"></path><path d="M338 175L232 434L439 420Z" fill="#02b917" stroke="#000000"></path><path d="M118 648L212 781L299 738Z" fill="#13cc07" stroke="#000000"></path><path d="M212 781L295 814L299 738Z" fill="#005c20" stroke="#000000"></path><path d="M299 738L295 814L392 756Z" fill="#009321" stroke="#000000"></path><path d="M249 921L439 1043L445 871Z" fill="#009321" stroke="#000000"></path><path d="M439 1043L478 1080L619 958Z" fill="#00a51e" stroke="#000000"></path><path d="M339 38L280 173L338 175Z" fill="#004b1d" stroke="#000000"></path><path d="M338 175L280 173L232 434Z" fill="#004b1d" stroke="#000000"></path><path d="M104 404L200 441L232 434Z" fill="#02b917" stroke="#000000"></path><path d="M232 434L175 533L299 589Z" fill="#003b19" stroke="#000000"></path><path d="M200 441L175 533L232 434Z" fill="#001c0b" stroke="#000000"></path><path d="M1717 549L1622 533L1718 710Z" fill="#008022" stroke="#000000"></path><path d="M1622 533L1675 403L1530 349Z" fill="#009321" stroke="#000000"></path><path d="M1741 143L1491 100L1546 236Z" fill="#004b1d" stroke="#000000"></path><path d="M536 0L339 38L451 171Z" fill="#006e22" stroke="#000000"></path><path d="M1491 100L1489 0L1283 0Z" fill="#003b19" stroke="#000000"></path><path d="M1521 0L1491 100L1681 0Z" fill="#004b1d" stroke="#000000"></path><path d="M118 648L299 738L299 589Z" fill="#009321" stroke="#000000"></path><path d="M295 814L249 921L445 871Z" fill="#005c20" stroke="#000000"></path><path d="M1696 288L1546 236L1594 319Z" fill="#005c20" stroke="#000000"></path><path d="M1718 710L1448 680L1519 833Z" fill="#004b1d" stroke="#000000"></path><path d="M212 781L239 899L295 814Z" fill="#005c20" stroke="#000000"></path><path d="M439 1043L241 1080L478 1080Z" fill="#006e22" stroke="#000000"></path><path d="M1601 1080L1613 909L1495 908Z" fill="#022b14" stroke="#000000"></path><path d="M1495 908L1613 909L1519 833Z" fill="#009321" stroke="#000000"></path><path d="M239 899L249 921L295 814Z" fill="#13cc07" stroke="#000000"></path><path d="M1723 286L1696 288L1675 403Z" fill="#004b1d" stroke="#000000"></path><path d="M1675 403L1696 288L1594 319Z" fill="#13cc07" stroke="#000000"></path><path d="M249 0L199 160L280 173Z" fill="#001c0b" stroke="#000000"></path><path d="M280 173L199 160L232 434Z" fill="#13cc07" stroke="#000000"></path><path d="M0 400L118 648L175 533Z" fill="#009321" stroke="#000000"></path><path d="M1654 903L1718 710L1519 833Z" fill="#022b14" stroke="#000000"></path><path d="M536 0L293 0L339 38Z" fill="#003b19" stroke="#000000"></path><path d="M339 38L249 0L280 173Z" fill="#006e22" stroke="#000000"></path><path d="M175 533L118 648L299 589Z" fill="#003b19" stroke="#000000"></path><path d="M212 781L179 879L239 899Z" fill="#003b19" stroke="#000000"></path><path d="M239 899L179 879L249 921Z" fill="#001c0b" stroke="#000000"></path><path d="M104 404L175 533L200 441Z" fill="#022b14" stroke="#000000"></path><path d="M1609 1080L1654 903L1613 909Z" fill="#022b14" stroke="#000000"></path><path d="M1613 909L1654 903L1519 833Z" fill="#003b19" stroke="#000000"></path><path d="M1920 387L1723 286L1675 403Z" fill="#008022" stroke="#000000"></path><path d="M1696 288L1722 200L1546 236Z" fill="#003b19" stroke="#000000"></path><path d="M1775 546L1675 403L1717 549Z" fill="#009321" stroke="#000000"></path><path d="M75 272L104 404L232 434Z" fill="#005c20" stroke="#000000"></path><path d="M0 746L179 879L212 781Z" fill="#00a51e" stroke="#000000"></path><path d="M249 921L241 1080L439 1043Z" fill="#02b917" stroke="#000000"></path><path d="M1884 657L1775 546L1718 710Z" fill="#00a51e" stroke="#000000"></path><path d="M1718 710L1775 546L1717 549Z" fill="#003b19" stroke="#000000"></path><path d="M293 0L249 0L339 38Z" fill="#13cc07" stroke="#000000"></path><path d="M199 160L75 272L232 434Z" fill="#001c0b" stroke="#000000"></path><path d="M1741 143L1722 200L1920 201Z" fill="#009321" stroke="#000000"></path><path d="M1723 286L1722 200L1696 288Z" fill="#003b19" stroke="#000000"></path><path d="M1325 1080L1601 1080L1437 925Z" fill="#004b1d" stroke="#000000"></path><path d="M1654 903L1806 774L1718 710Z" fill="#005c20" stroke="#000000"></path><path d="M0 21L75 272L199 160Z" fill="#005c20" stroke="#000000"></path><path d="M104 404L0 400L175 533Z" fill="#008022" stroke="#000000"></path><path d="M1601 1080L1609 1080L1613 909Z" fill="#004b1d" stroke="#000000"></path><path d="M1920 201L1722 200L1723 286Z" fill="#008022" stroke="#000000"></path><path d="M1722 200L1741 143L1546 236Z" fill="#00a51e" stroke="#000000"></path><path d="M108 956L241 1080L249 921Z" fill="#022b14" stroke="#000000"></path><path d="M1741 143L1681 0L1491 100Z" fill="#006e22" stroke="#000000"></path><path d="M1781 907L1806 774L1654 903Z" fill="#009321" stroke="#000000"></path><path d="M1775 546L1920 387L1675 403Z" fill="#005c20" stroke="#000000"></path><path d="M1609 1080L1755 932L1654 903Z" fill="#009321" stroke="#000000"></path><path d="M1741 143L1728 38L1681 0Z" fill="#006e22" stroke="#000000"></path><path d="M0 877L108 956L179 879Z" fill="#13cc07" stroke="#000000"></path><path d="M179 879L108 956L249 921Z" fill="#009321" stroke="#000000"></path><path d="M0 746L212 781L118 648Z" fill="#13cc07" stroke="#000000"></path><path d="M0 383L0 400L104 404Z" fill="#13cc07" stroke="#000000"></path><path d="M0 335L104 404L75 272Z" fill="#003b19" stroke="#000000"></path><path d="M0 335L0 383L104 404Z" fill="#005c20" stroke="#000000"></path><path d="M1813 1080L1781 907L1755 932Z" fill="#009321" stroke="#000000"></path><path d="M1755 932L1781 907L1654 903Z" fill="#00a51e" stroke="#000000"></path><path d="M0 400L0 677L118 648Z" fill="#008022" stroke="#000000"></path><path d="M0 21L0 335L75 272Z" fill="#004b1d" stroke="#000000"></path><path d="M1920 37L1728 38L1741 143Z" fill="#022b14" stroke="#000000"></path><path d="M1920 0L1727 0L1728 38Z" fill="#022b14" stroke="#000000"></path><path d="M1728 38L1727 0L1681 0Z" fill="#003b19" stroke="#000000"></path><path d="M0 677L0 746L118 648Z" fill="#022b14" stroke="#000000"></path><path d="M1920 628L1884 657L1920 885Z" fill="#009321" stroke="#000000"></path><path d="M1806 774L1884 657L1718 710Z" fill="#003b19" stroke="#000000"></path><path d="M249 0L91 0L199 160Z" fill="#02b917" stroke="#000000"></path><path d="M1920 614L1920 485L1775 546Z" fill="#003b19" stroke="#000000"></path><path d="M1920 628L1920 614L1884 657Z" fill="#13cc07" stroke="#000000"></path><path d="M1884 657L1920 614L1775 546Z" fill="#009321" stroke="#000000"></path><path d="M0 746L0 877L179 879Z" fill="#00a51e" stroke="#000000"></path><path d="M108 956L55 1080L241 1080Z" fill="#005c20" stroke="#000000"></path><path d="M1920 885L1884 657L1806 774Z" fill="#008022" stroke="#000000"></path><path d="M1920 485L1920 387L1775 546Z" fill="#00a51e" stroke="#000000"></path><path d="M0 877L0 932L108 956Z" fill="#005c20" stroke="#000000"></path><path d="M1920 387L1920 201L1723 286Z" fill="#005c20" stroke="#000000"></path><path d="M0 932L55 1080L108 956Z" fill="#13cc07" stroke="#000000"></path><path d="M91 0L0 21L199 160Z" fill="#003b19" stroke="#000000"></path><path d="M1609 1080L1813 1080L1755 932Z" fill="#004b1d" stroke="#000000"></path><path d="M1781 907L1920 885L1806 774Z" fill="#006e22" stroke="#000000"></path><path d="M1920 896L1920 885L1781 907Z" fill="#001c0b" stroke="#000000"></path><path d="M91 0L0 0L0 21Z" fill="#004b1d" stroke="#000000"></path><path d="M1813 1080L1920 896L1781 907Z" fill="#13cc07" stroke="#000000"></path><path d="M0 932L0 1080L55 1080Z" fill="#008022" stroke="#000000"></path><path d="M1920 201L1920 37L1741 143Z" fill="#001c0b" stroke="#000000"></path><path d="M1920 37L1920 0L1728 38Z" fill="#00a51e" stroke="#000000"></path><path d="M1813 1080L1920 1080L1920 896Z" fill="#00a51e" stroke="#000000"></path></g></svg>